<?xml version="1.0" standalone="no"?>
<!DOCTYPE svg PUBLIC "-//W3C//DTD SVG 20010904//EN"
 "http://www.w3.org/TR/2001/REC-SVG-20010904/DTD/svg10.dtd">
<svg version="1.0" xmlns="http://www.w3.org/2000/svg"
 width="1112.000000pt" height="1112.000000pt" viewBox="0 0 1112.000000 1112.000000"
 preserveAspectRatio="xMidYMid meet">
<metadata>
Created by potrace 1.11, written by Peter Selinger 2001-2013
</metadata>
<g transform="translate(0.000000,1112.000000) scale(0.100000,-0.100000)"
fill="#000000" stroke="none">
<path d="M2685 9718 c-122 -16 -269 -70 -390 -141 -27 -17 -70 -41 -95 -55
-25 -14 -47 -28 -50 -32 -3 -3 -27 -22 -55 -41 -53 -36 -177 -134 -234 -184
-64 -55 -255 -249 -311 -314 -30 -35 -66 -76 -79 -90 -13 -14 -31 -37 -40 -51
-22 -35 -33 -49 -53 -68 -10 -9 -18 -22 -18 -29 0 -7 -4 -13 -9 -13 -10 0 -88
-113 -122 -177 -7 -13 -16 -23 -21 -23 -4 0 -8 -6 -8 -14 0 -8 -6 -21 -13 -28
-6 -7 -21 -31 -32 -53 -11 -22 -26 -46 -33 -53 -6 -7 -12 -20 -12 -27 0 -7 -7
-21 -16 -29 -8 -9 -13 -16 -10 -16 3 0 -11 -32 -30 -71 -42 -85 -111 -286
-119 -349 -6 -46 -12 -81 -15 -90 -7 -19 -4 -147 4 -158 5 -7 6 -15 3 -18 -9
-10 23 -105 59 -174 45 -85 87 -130 161 -170 64 -34 91 4 89 128 -1 34 3 62 7
62 5 0 6 3 4 8 -8 12 28 162 67 274 61 178 191 455 300 638 15 25 29 53 33 63
3 9 9 17 14 17 5 0 9 4 9 10 0 5 15 33 34 62 18 29 34 57 34 62 0 5 4 12 9 15
4 3 22 26 38 51 17 25 33 50 38 55 4 6 39 55 79 110 235 329 477 552 604 555
134 4 173 -88 129 -308 -6 -30 -67 -206 -81 -234 -8 -15 -15 -31 -15 -35 -4
-27 -148 -321 -230 -469 -50 -91 -195 -338 -224 -384 -16 -25 -34 -53 -40 -62
-5 -10 -34 -55 -63 -100 -29 -46 -58 -92 -65 -103 -6 -11 -14 -22 -17 -25 -3
-3 -11 -17 -19 -32 -8 -16 -18 -28 -23 -28 -4 0 -8 -6 -8 -13 0 -8 -9 -22 -20
-32 -11 -10 -20 -23 -20 -30 0 -6 -8 -20 -18 -31 -9 -10 -33 -44 -52 -74 -19
-30 -40 -62 -47 -70 -6 -8 -71 -98 -144 -200 -111 -156 -164 -229 -217 -295
-4 -5 -21 -28 -37 -50 -37 -49 -54 -71 -80 -101 -11 -13 -33 -42 -49 -64 -17
-22 -33 -40 -38 -40 -4 0 -8 -5 -8 -10 0 -9 -30 -47 -68 -86 -6 -7 -12 -18
-12 -24 0 -6 -4 -8 -10 -5 -5 3 -10 2 -10 -4 0 -6 -21 -34 -46 -63 -26 -29
-69 -80 -98 -112 -59 -68 -279 -291 -316 -321 -66 -53 -108 -82 -142 -100 -21
-11 -39 -24 -39 -30 -7 -46 -6 -75 2 -75 6 0 8 -4 5 -9 -6 -9 21 -48 59 -86
107 -108 281 -121 430 -31 50 30 159 135 223 214 19 23 43 51 54 64 10 13 27
32 36 43 10 11 31 38 47 60 16 22 33 42 36 45 3 3 94 122 201 265 279 372 367
480 512 629 39 41 57 54 53 40 -2 -12 0 -29 5 -38 6 -10 5 -16 -2 -16 -7 0 -8
-5 -3 -12 4 -7 9 -26 10 -43 7 -88 9 -101 16 -112 4 -6 3 -14 -3 -18 -6 -4 -7
-13 -2 -23 5 -9 10 -37 11 -62 2 -25 5 -48 7 -51 2 -4 6 -27 9 -50 5 -38 12
-79 39 -229 2 -14 10 -47 16 -75 6 -27 13 -57 15 -65 8 -39 39 -152 57 -210
73 -234 129 -361 225 -509 59 -92 69 -102 158 -163 33 -23 62 -44 65 -47 3 -3
28 -22 55 -40 28 -19 53 -40 57 -45 4 -6 25 -10 48 -9 41 2 191 35 240 53 14
6 36 12 50 14 14 3 25 5 25 6 0 1 7 3 15 5 8 2 58 16 110 30 52 15 102 29 110
31 8 2 87 22 175 44 88 22 174 43 190 45 17 3 37 8 45 10 8 2 30 7 48 10 18 3
63 12 100 19 37 8 87 17 112 20 25 3 56 8 70 11 14 2 47 7 74 9 l49 5 -19 -21
c-11 -12 -26 -29 -34 -38 -40 -44 -102 -113 -170 -189 -41 -47 -84 -95 -95
-107 -11 -12 -45 -49 -75 -83 -30 -34 -71 -79 -90 -100 -19 -21 -60 -66 -90
-101 -30 -34 -68 -77 -85 -95 -16 -17 -52 -58 -80 -89 -27 -31 -66 -74 -85
-95 -19 -21 -64 -71 -100 -112 -120 -136 -109 -128 -215 -150 -210 -44 -476
-154 -650 -268 -87 -57 -180 -147 -199 -191 -13 -33 -13 -35 11 -55 39 -34
119 -25 318 37 72 22 167 51 213 63 45 13 92 27 104 31 22 7 22 7 3 -22 -10
-16 -22 -33 -27 -39 -30 -36 -80 -105 -151 -205 -45 -63 -85 -119 -89 -125
-25 -30 -158 -227 -158 -232 0 -3 -12 -22 -27 -42 -61 -79 -289 -450 -285
-463 1 -5 -2 -8 -7 -8 -4 0 -28 -38 -52 -85 -24 -47 -47 -85 -53 -85 -5 0 -7
-2 -4 -6 3 -3 -14 -44 -37 -92 -44 -90 -114 -253 -120 -281 -2 -9 -13 -42 -24
-73 -38 -104 -33 -187 16 -285 28 -55 85 -123 103 -123 6 0 22 -7 35 -16 14
-9 25 -14 25 -11 0 3 16 -1 35 -9 45 -18 95 -18 123 2 18 12 83 120 87 144 0
3 8 22 18 43 9 20 23 52 31 70 19 43 223 501 247 555 11 23 44 83 74 133 30
51 55 93 55 95 0 2 20 34 43 71 24 38 46 73 48 79 5 13 181 297 189 304 3 3
14 21 24 40 50 90 493 737 537 784 16 18 390 6 564 -18 148 -21 302 -70 336
-108 21 -23 40 -23 71 2 44 34 65 91 72 195 4 57 4 57 -50 111 -54 56 -91 77
-181 100 -77 20 -241 38 -355 39 -32 0 -58 3 -58 6 0 4 -18 3 -39 -1 -22 -4
-45 -4 -52 1 -7 4 -23 5 -36 3 -29 -5 -29 -6 37 82 27 34 51 60 54 57 3 -4 6
-2 6 4 0 9 111 157 129 173 3 3 46 52 95 110 164 193 320 360 532 573 156 156
163 162 200 161 196 -7 383 -19 444 -30 19 -3 55 -7 80 -9 25 -2 70 -8 100
-14 30 -6 66 -13 80 -15 33 -7 58 -13 98 -25 18 -5 35 -10 37 -10 3 -1 6 -1 8
-2 1 0 13 -3 27 -5 13 -3 29 -9 34 -14 6 -6 18 -10 28 -10 9 0 50 -17 90 -38
40 -21 78 -37 83 -37 75 7 142 89 150 183 6 79 -75 188 -185 249 -93 52 -279
107 -430 128 -19 2 -44 6 -55 9 -11 2 -49 7 -85 11 -36 4 -73 9 -82 11 -80 14
-376 20 -523 9 -141 -10 -156 -12 -195 -19 -19 -3 -61 -8 -94 -11 -32 -3 -61
-7 -65 -9 -3 -3 -27 -7 -51 -11 -41 -6 -183 -35 -270 -55 -19 -5 -46 -11 -60
-14 -21 -4 -182 -48 -230 -63 -8 -2 -16 -4 -17 -4 -1 -1 -60 -21 -130 -46 -71
-24 -134 -45 -140 -45 -7 -1 -13 -5 -13 -10 0 -4 -6 -8 -14 -8 -11 0 -66 -23
-171 -70 -55 -25 -162 -50 -193 -45 -45 7 -61 16 -102 62 -36 39 -260 403
-260 422 0 6 -4 11 -10 11 -5 0 -10 8 -10 18 0 11 -7 33 -15 49 -16 32 -90
270 -99 320 -3 15 -14 66 -25 113 -10 47 -22 101 -25 121 -3 20 -7 42 -10 50
-3 8 -8 34 -11 59 -4 25 -9 56 -11 70 -2 14 -6 41 -8 60 -3 19 -5 35 -6 35 -2
0 -6 30 -14 95 -3 25 -7 61 -10 80 -5 35 -12 100 -21 195 -3 28 -8 73 -11 100
-9 78 -9 79 56 141 35 32 102 97 149 144 120 117 377 355 471 437 24 21 51 45
60 53 17 16 119 104 158 136 13 10 33 27 45 38 12 10 65 53 117 95 52 42 97
78 100 81 3 3 34 28 70 55 35 28 73 58 84 68 11 9 25 17 30 17 8 0 8 -3 0 -8
-23 -15 -41 -98 -40 -178 3 -93 26 -171 64 -211 l27 -28 -70 -95 c-38 -52 -72
-97 -76 -100 -3 -3 -34 -43 -69 -90 -35 -47 -67 -87 -70 -90 -4 -3 -9 -10 -11
-16 -2 -6 -18 -29 -36 -50 -92 -112 -270 -353 -265 -358 3 -3 1 -6 -5 -6 -6 0
-37 -36 -69 -81 -32 -44 -65 -88 -73 -96 -18 -19 -23 -93 -8 -114 7 -9 25 -19
40 -23 25 -6 34 -1 65 33 20 21 66 80 102 131 36 50 88 121 115 158 56 74 286
389 354 485 24 34 48 64 52 65 5 2 9 10 9 17 0 7 3 15 8 17 4 2 29 33 55 70
69 98 72 100 124 93 51 -7 198 -8 229 -1 12 2 39 7 60 10 21 4 58 13 82 22 25
8 46 13 48 11 3 -3 -14 -22 -145 -165 -186 -203 -191 -209 -266 -297 -33 -38
-67 -76 -75 -85 -8 -8 -31 -35 -50 -59 -19 -24 -51 -63 -70 -85 -63 -76 -98
-120 -149 -191 -27 -38 -54 -74 -58 -80 -7 -8 -63 -94 -131 -200 -7 -11 -15
-28 -18 -37 -4 -10 -10 -18 -15 -18 -5 0 -8 -3 -7 -7 1 -5 -12 -37 -29 -73
-39 -81 -74 -170 -68 -170 3 0 1 -10 -6 -21 -10 -19 -20 -97 -21 -164 -1 -46
15 -103 40 -145 28 -46 98 -102 118 -95 6 2 16 -1 23 -8 11 -11 139 -18 156
-8 6 3 19 7 30 8 11 2 24 8 29 13 6 6 18 10 27 10 9 0 22 7 29 15 7 9 15 13
17 11 18 -17 262 200 368 326 l40 48 1 -93 c2 -156 30 -240 101 -301 66 -56
167 -54 268 6 11 6 29 16 40 22 77 41 275 221 349 319 33 43 41 46 44 15 4
-71 15 -134 23 -142 5 -6 9 -18 9 -27 0 -28 51 -118 89 -156 20 -20 56 -45 81
-56 49 -22 150 -29 210 -15 19 5 43 10 52 13 30 7 87 36 99 51 6 8 17 14 23
14 17 1 91 98 124 165 27 53 74 185 87 240 2 11 9 40 16 65 13 52 17 74 25
115 3 17 9 48 15 70 5 22 12 51 14 65 3 14 8 36 11 50 4 14 8 34 10 45 1 11
10 47 19 80 9 33 18 68 20 78 20 94 138 387 165 407 4 3 13 16 20 29 6 13 24
37 38 54 128 147 237 220 421 282 85 28 119 56 145 119 20 49 21 143 1 209
-15 51 -54 107 -75 107 -5 0 -10 3 -10 8 0 4 -15 7 -32 6 -263 -14 -483 -168
-820 -574 -40 -48 -165 -216 -253 -340 -181 -254 -224 -306 -387 -462 -89 -86
-177 -168 -194 -182 -18 -14 -47 -40 -65 -57 -36 -34 -147 -109 -161 -109 -30
0 54 179 153 328 16 24 29 45 29 48 0 3 14 25 30 49 17 24 30 48 30 54 0 6 4
11 8 11 5 0 15 12 23 28 12 24 281 431 302 457 4 6 44 60 87 120 44 61 88 121
97 134 10 14 36 47 58 75 22 28 54 69 70 90 16 22 57 69 91 106 l63 66 -25 45
c-55 97 -123 124 -234 93 -58 -16 -72 -26 -154 -108 -50 -50 -113 -118 -141
-150 -27 -33 -59 -70 -70 -83 -11 -13 -31 -37 -45 -55 -14 -17 -37 -45 -51
-62 -39 -48 -279 -372 -334 -451 -26 -38 -52 -73 -57 -76 -6 -3 -9 -9 -9 -13
2 -11 -141 -209 -188 -260 -39 -41 -90 -91 -192 -188 -39 -37 -191 -159 -212
-170 -12 -6 -24 -14 -27 -17 -9 -12 -74 -47 -107 -58 -36 -13 -69 -7 -77 13
-8 20 35 112 86 185 23 34 48 69 53 77 6 9 20 27 32 41 29 35 251 317 372 471
232 297 339 465 391 613 30 86 31 140 4 211 -27 69 -102 112 -166 95 -15 -4
-45 -10 -65 -13 -21 -3 -49 -8 -63 -11 -28 -5 -166 -18 -190 -17 -8 0 -27 3
-42 6 -16 2 -28 0 -28 -5 0 -6 -7 -6 -17 0 -10 5 -37 11 -61 15 -40 5 -172 52
-182 65 -3 4 -17 12 -32 18 -15 7 -41 24 -58 39 -29 26 -29 28 -13 47 10 10
47 42 83 70 36 28 67 54 70 58 3 3 75 58 160 123 85 64 163 123 172 131 9 7
29 22 45 32 31 20 46 31 72 53 10 8 25 20 34 25 53 33 255 173 271 188 11 9
23 17 27 17 20 0 17 43 -7 96 -26 58 -64 115 -64 98 0 -5 -4 -4 -8 1 -29 42
-156 95 -244 102 -75 6 -153 -14 -183 -47 -10 -11 -22 -20 -27 -20 -30 0 -356
-257 -558 -439 -41 -38 -99 -90 -129 -117 -120 -108 -378 -357 -703 -682 -142
-141 -258 -251 -258 -246 0 6 4 14 9 19 5 6 35 60 67 120 32 61 62 113 68 117
6 4 8 8 4 8 -4 0 15 44 41 98 27 53 56 113 64 132 9 19 30 66 46 104 17 38 31
72 31 76 0 4 7 24 15 44 8 20 15 38 15 41 0 3 7 22 16 43 8 20 17 45 20 56 2
10 10 43 19 72 50 173 57 377 16 469 -26 60 -70 107 -125 136 -43 22 -57 26
-121 35 -78 10 -91 10 -150 2z m3140 -1985 c-15 -71 -158 -500 -197 -593 -79
-184 -173 -283 -278 -292 -39 -3 -131 20 -142 35 -3 6 11 34 33 63 21 29 39
57 39 63 0 5 4 11 8 13 4 2 22 27 40 56 18 30 38 59 43 65 6 7 56 73 111 147
56 74 104 137 107 140 3 3 22 28 41 55 19 28 39 55 45 61 5 7 19 24 30 40 11
15 29 39 40 53 11 14 33 45 49 69 32 46 37 50 31 25z"/>
<path d="M8160 9521 c0 -3 -14 -7 -32 -8 -43 -3 -174 -72 -264 -139 -101 -74
-251 -216 -384 -362 -47 -52 -51 -53 -184 -67 -22 -3 -78 -11 -125 -20 -129
-22 -145 -25 -163 -31 -9 -3 -27 -7 -40 -9 -13 -3 -36 -8 -53 -12 -16 -4 -32
-7 -35 -8 -81 -17 -276 -103 -292 -128 -6 -9 -3 -46 4 -52 2 -1 30 -11 63 -22
56 -19 67 -19 144 -7 46 7 102 16 125 18 23 3 50 7 61 10 11 2 40 7 65 10 25
3 56 8 70 11 67 13 110 16 110 7 0 -6 -4 -12 -9 -14 -8 -3 -219 -276 -279
-360 -38 -54 -101 -142 -109 -153 -40 -52 -367 -562 -385 -601 -6 -13 -15 -24
-20 -24 -5 0 -7 -4 -3 -9 3 -5 1 -12 -4 -15 -5 -4 -26 -37 -47 -74 -20 -37
-44 -75 -53 -86 -9 -10 -15 -21 -15 -25 2 -7 -1 -16 -39 -111 -16 -41 -30 -79
-32 -85 -1 -5 -5 -17 -8 -25 -21 -57 -74 -241 -82 -290 -3 -19 -8 -42 -10 -50
-9 -29 -17 -126 -16 -195 1 -165 76 -281 195 -303 37 -6 113 -7 141 0 58 13
186 88 269 158 50 42 239 233 281 284 77 92 104 126 130 161 l14 20 1 -20 c0
-11 -5 -38 -11 -59 -16 -58 -18 -232 -3 -304 14 -70 52 -143 93 -178 33 -29
109 -66 121 -59 5 3 11 2 14 -3 5 -9 146 -8 199 2 20 4 40 7 44 8 28 4 153 52
205 80 140 73 252 162 429 342 l117 118 103 3 c57 2 115 6 129 9 24 6 41 9
123 21 20 2 37 3 37 0 0 -3 -20 -33 -43 -68 -45 -64 -136 -219 -175 -297 -13
-25 -27 -52 -31 -60 -8 -15 -67 -147 -82 -185 -14 -36 -57 -169 -68 -210 -37
-143 -42 -351 -10 -391 5 -6 6 -13 3 -16 -9 -10 48 -102 90 -144 64 -63 137
-74 236 -38 53 20 143 76 183 113 104 97 194 201 268 311 24 36 46 67 49 70 4
3 13 20 21 38 8 17 17 32 21 32 5 0 8 6 8 14 0 8 3 16 8 18 13 5 123 219 177
343 21 50 42 94 47 99 4 6 8 17 8 25 0 9 6 28 14 42 7 14 28 69 46 123 18 53
36 99 40 101 4 3 32 -3 61 -13 76 -26 116 -21 207 28 98 52 203 146 299 265
61 76 151 236 147 263 -1 6 -2 19 -3 27 0 8 -10 19 -21 25 -28 15 -83 -15
-146 -82 -152 -159 -286 -269 -346 -284 -16 -3 -28 -9 -28 -14 0 -6 -25 -6
-62 -1 -4 1 -12 10 -18 21 -8 14 -5 38 11 95 21 77 23 88 34 160 3 22 8 54 11
70 3 17 7 79 8 140 l4 109 129 126 c72 69 215 206 318 305 534 511 663 668
711 865 27 111 11 152 -66 173 -73 20 -131 13 -233 -29 -59 -25 -152 -78 -175
-101 -7 -7 -17 -13 -21 -13 -4 0 -16 -8 -27 -17 -10 -10 -37 -31 -59 -48 -22
-16 -45 -34 -52 -40 -184 -162 -310 -287 -507 -505 -12 -14 -44 -52 -72 -85
-27 -33 -52 -61 -56 -63 -5 -2 -8 -11 -8 -19 0 -9 -3 -14 -6 -10 -4 3 -25 -17
-47 -46 -23 -29 -46 -57 -52 -64 -24 -29 -37 -45 -101 -129 -37 -49 -70 -91
-73 -94 -4 -3 -24 -30 -46 -60 -22 -30 -42 -57 -46 -60 -3 -3 -28 -36 -54 -75
-50 -72 -182 -259 -200 -284 -35 -47 -149 -154 -195 -184 -30 -20 -83 -44
-118 -52 -63 -16 -64 -16 -83 6 -15 18 -17 25 -6 38 53 68 116 156 117 163 0
4 13 26 29 50 66 98 203 386 221 463 1 6 6 18 12 28 5 10 11 27 14 38 2 10 6
27 9 37 16 56 45 195 51 247 10 79 10 218 0 277 -15 95 -90 159 -186 160 -68
0 -180 -11 -225 -23 -22 -6 -50 -13 -63 -16 -12 -3 -25 -9 -28 -14 -3 -5 -12
-9 -20 -9 -8 0 -33 -12 -57 -27 -23 -15 -58 -28 -77 -29 -100 -6 -130 -10
-130 -16 0 -5 -7 -8 -15 -8 -13 0 -141 -74 -155 -90 -3 -3 -22 -18 -42 -33
-50 -37 -220 -207 -288 -287 -30 -36 -57 -67 -60 -70 -4 -3 -19 -23 -36 -45
-16 -22 -33 -45 -39 -52 -48 -58 -125 -171 -125 -182 0 -6 -3 -11 -7 -11 -5 0
-15 -12 -24 -28 -9 -15 -38 -63 -65 -107 -27 -44 -58 -99 -69 -122 -11 -24
-23 -43 -27 -43 -5 0 -8 -6 -8 -12 0 -7 -28 -43 -63 -80 -34 -37 -91 -100
-127 -139 -96 -107 -190 -198 -235 -228 -22 -14 -42 -29 -45 -32 -3 -4 -20 -9
-39 -12 -27 -5 -38 -1 -57 20 -13 14 -24 31 -25 37 0 6 -2 20 -5 31 -8 43 -5
97 8 150 6 22 12 47 13 55 2 8 4 15 5 15 1 0 3 7 5 15 3 14 32 94 54 145 51
123 239 461 305 550 13 17 25 35 27 40 5 13 101 159 109 165 3 3 33 43 65 90
33 47 64 90 70 96 5 6 17 22 25 34 8 12 20 28 25 34 6 6 33 40 60 76 27 36 52
67 55 70 3 3 13 14 21 26 13 20 83 105 104 128 6 6 28 32 49 58 21 26 43 45
48 42 6 -4 22 -8 37 -9 46 -4 155 -17 171 -20 8 -1 42 -6 75 -9 33 -4 71 -9
85 -11 14 -2 48 -6 75 -10 28 -3 84 -10 125 -15 41 -5 100 -12 130 -16 30 -4
66 -8 80 -10 14 -2 49 -6 78 -9 29 -4 62 -8 73 -10 82 -16 142 91 98 176 -35
69 -107 118 -181 122 -10 1 -18 4 -18 7 0 3 -8 6 -17 6 -10 1 -31 4 -48 7 -16
3 -50 8 -75 12 -25 4 -58 9 -75 11 -34 6 -265 16 -337 15 -47 0 -47 0 -27 20
11 11 75 68 142 127 67 59 130 114 140 123 20 18 52 113 49 147 -2 32 -39 81
-71 94 -30 11 -81 17 -81 9z m2524 -729 c7 -11 -45 -82 -104 -143 -25 -26 -73
-76 -107 -111 -74 -77 -267 -258 -503 -473 -49 -44 -150 -125 -156 -125 -3 0
-2 6 2 13 8 14 135 179 144 187 3 3 19 21 35 41 98 116 130 152 220 247 55 58
122 126 149 151 28 25 68 63 90 84 22 20 58 50 81 65 22 15 42 30 45 34 7 9
71 37 87 38 6 0 14 -4 17 -8z m-1979 -555 c7 -17 11 -49 9 -71 -6 -51 -44
-185 -56 -192 -4 -3 -8 -12 -8 -19 0 -8 -13 -42 -29 -75 -16 -33 -26 -60 -23
-60 4 0 2 -4 -3 -8 -10 -7 -29 -44 -35 -67 -1 -5 -10 -21 -20 -35 -9 -14 -24
-38 -32 -55 -23 -47 -79 -146 -105 -187 -13 -21 -23 -42 -23 -47 0 -5 -4 -11
-8 -13 -5 -1 -15 -16 -23 -32 -24 -50 -34 -35 -32 54 1 147 15 248 53 397 32
125 74 235 120 319 40 72 67 102 110 124 45 23 87 10 105 -33z m-731 -638
c-14 -54 -18 -123 -14 -234 3 -71 80 -295 101 -295 21 0 6 -40 -28 -77 -21
-23 -58 -63 -83 -90 -98 -106 -212 -175 -296 -177 -61 -1 -79 20 -78 87 1 29
3 61 6 72 3 11 11 40 18 65 7 25 17 51 22 58 6 6 8 12 4 12 -3 0 3 17 14 37
11 21 20 41 20 45 0 8 46 104 85 178 16 30 30 57 30 60 5 22 157 263 182 289
13 13 23 28 23 34 0 6 2 8 5 5 3 -3 -2 -34 -11 -69z m1351 -430 c-1 -12 5 -53
12 -93 22 -108 22 -110 -2 -178 -12 -35 -23 -67 -25 -73 -1 -5 -6 -20 -11 -33
-5 -13 -12 -34 -15 -47 -3 -14 -10 -25 -15 -25 -5 0 -9 -8 -9 -17 -1 -10 -9
-33 -18 -50 -9 -18 -32 -63 -51 -100 -131 -260 -335 -494 -406 -467 -57 22 78
360 276 689 17 29 31 52 60 105 8 14 31 51 52 83 20 31 37 61 37 66 0 5 3 11
8 13 9 4 42 52 72 106 26 46 37 53 35 21z"/>
<path d="M5977 9124 c-2 -3 -18 -6 -35 -8 -55 -7 -145 -83 -158 -133 -3 -13
-11 -23 -17 -23 -6 0 -8 -3 -4 -6 3 -3 1 -18 -5 -33 -23 -59 -1 -144 47 -175
24 -16 119 -29 130 -18 3 3 13 7 21 8 60 9 163 96 191 162 44 101 3 196 -92
216 -60 13 -73 14 -78 10z"/>
<path d="M5830 4794 c-36 -7 -76 -16 -90 -19 -14 -3 -32 -8 -40 -10 -8 -2 -17
-4 -20 -5 -3 -1 -8 -2 -12 -1 -5 0 -8 -4 -8 -10 0 -5 -4 -8 -9 -5 -9 6 -194
-83 -199 -96 -2 -4 -8 -8 -14 -8 -5 0 -29 -13 -53 -30 -24 -16 -48 -30 -53
-30 -6 0 -12 -4 -14 -8 -1 -5 -28 -27 -58 -49 -30 -22 -65 -49 -76 -59 -12
-11 -46 -39 -75 -64 -109 -93 -323 -320 -401 -425 -4 -5 -18 -23 -31 -40 -78
-98 -249 -374 -297 -480 -40 -87 -62 -139 -65 -155 -2 -8 -14 -53 -28 -100
-14 -47 -28 -102 -31 -123 -19 -120 -26 -236 -14 -243 5 -3 6 -9 3 -14 -8 -14
13 -87 42 -145 63 -129 176 -193 333 -190 71 2 195 17 195 25 0 1 10 4 50 13
46 11 138 50 215 92 46 25 87 45 91 45 4 0 9 3 11 8 2 4 26 22 53 41 78 54
153 119 242 208 l81 83 -3 -171 c-4 -157 -2 -175 17 -215 23 -49 63 -87 117
-110 39 -17 133 -25 166 -13 42 15 110 44 120 52 6 4 42 29 82 55 39 26 86 59
105 74 36 30 100 78 104 78 2 0 -31 -51 -73 -112 -73 -109 -78 -114 -152 -154
-42 -22 -103 -55 -136 -74 -33 -18 -80 -44 -105 -58 -120 -66 -206 -117 -212
-126 -4 -6 -8 -8 -8 -4 0 4 -24 -9 -52 -28 -29 -19 -61 -40 -72 -47 -10 -7
-29 -20 -41 -29 -13 -10 -26 -18 -30 -18 -3 0 -12 -6 -19 -12 -7 -7 -25 -22
-40 -33 -99 -72 -214 -187 -261 -260 -34 -54 -69 -135 -61 -142 3 -3 1 -15 -4
-27 -10 -26 9 -115 34 -164 22 -42 68 -86 114 -108 50 -24 56 -25 142 -26 298
-3 620 257 1048 847 56 77 105 145 109 150 5 6 28 39 53 75 24 36 48 67 52 68
4 2 8 8 8 14 0 30 120 168 147 168 6 0 13 4 15 8 2 4 25 23 53 42 27 19 55 40
61 45 6 6 50 37 98 70 47 33 119 84 159 113 39 30 81 58 91 64 16 9 18 8 12
-8 -8 -21 -9 -155 -1 -196 3 -15 10 -40 16 -55 6 -16 10 -29 10 -30 -3 -19 31
-81 66 -123 52 -61 128 -93 221 -93 100 -1 141 7 204 39 71 36 140 109 181
191 32 63 62 144 71 189 3 10 12 46 20 79 9 33 19 76 22 95 3 19 8 44 11 55 3
11 7 31 9 45 4 36 13 84 31 165 8 39 16 79 18 90 2 11 10 46 18 78 8 31 12 57
9 57 -2 0 0 6 5 13 6 6 11 19 11 27 2 39 109 307 132 330 3 3 10 12 15 21 52
83 154 199 175 199 4 0 10 4 12 8 12 30 155 104 283 148 90 31 124 66 145 153
12 47 14 82 8 130 -8 73 -34 151 -49 151 -6 0 -8 4 -5 9 7 11 -74 52 -87 44
-5 -3 -30 -7 -55 -8 -140 -9 -335 -127 -514 -311 -99 -102 -121 -127 -188
-214 -19 -25 -37 -47 -41 -50 -10 -8 -153 -205 -149 -205 4 0 -9 -17 -45 -59
-5 -7 -14 -19 -20 -28 -5 -9 -31 -46 -57 -83 -27 -36 -48 -70 -48 -75 0 -6 -4
-10 -8 -10 -4 0 -15 -12 -24 -27 -34 -58 -121 -169 -162 -208 -24 -22 -96 -89
-161 -150 -66 -60 -147 -136 -181 -169 -98 -91 -138 -126 -147 -126 -5 0 -6
-4 -3 -9 3 -5 -1 -12 -10 -15 -9 -3 -14 -3 -12 1 2 5 17 35 32 68 55 118 98
211 126 270 16 33 40 86 53 117 14 31 44 84 66 117 23 33 41 64 41 70 0 5 3
11 8 13 7 3 132 195 132 204 0 3 5 10 10 17 6 7 34 48 62 92 28 44 67 105 86
135 40 62 173 252 181 260 3 3 24 27 46 55 22 27 56 67 76 89 32 34 36 43 28
68 -4 16 -9 32 -10 36 -9 37 -40 82 -58 82 -6 0 -11 4 -11 9 0 11 -73 41 -99
41 -53 0 -227 -152 -350 -305 -31 -38 -61 -76 -68 -83 -7 -7 -20 -26 -30 -42
-9 -17 -21 -30 -25 -30 -4 0 -8 -5 -8 -11 0 -6 -16 -30 -35 -53 -19 -24 -35
-48 -35 -54 0 -6 -3 -12 -7 -14 -11 -5 -53 -66 -53 -77 0 -5 -4 -11 -8 -13
-11 -4 -89 -120 -90 -132 0 -5 -4 -12 -9 -15 -13 -9 -73 -100 -73 -112 0 -5
-4 -9 -10 -9 -5 0 -10 -5 -10 -11 0 -6 -11 -25 -25 -43 -14 -18 -25 -38 -25
-44 0 -6 -3 -12 -7 -14 -15 -6 -62 -87 -67 -114 -3 -15 -20 -43 -38 -63 -39
-41 -41 -44 -93 -106 -68 -83 -117 -135 -216 -236 -152 -153 -243 -202 -295
-158 -20 17 -9 125 21 204 27 72 114 256 125 265 3 3 11 16 18 30 7 14 22 41
35 61 75 120 134 213 147 234 8 13 42 63 75 111 33 47 65 94 70 103 6 9 12 18
15 21 3 3 30 41 60 85 30 44 60 87 66 95 112 142 198 245 239 285 28 28 50 55
50 60 -6 79 -80 164 -155 178 -14 3 -29 7 -35 8 -5 2 -26 -8 -46 -24 -20 -15
-39 -27 -43 -27 -23 0 -281 -260 -401 -405 -75 -90 -69 -83 -125 -155 -19 -25
-37 -47 -40 -50 -5 -4 -124 -166 -166 -225 -46 -65 -94 -136 -94 -139 0 -4
-62 -100 -78 -121 -4 -5 -14 -23 -22 -40 -20 -41 -206 -227 -310 -310 -47 -37
-87 -71 -90 -75 -3 -4 -9 -9 -15 -11 -5 -2 -55 -34 -110 -70 -55 -37 -123 -76
-150 -89 -28 -12 -63 -28 -80 -36 -52 -23 -127 -46 -133 -40 -3 3 -11 1 -18
-5 -20 -17 -148 -17 -168 0 -56 47 -64 160 -20 293 9 26 20 50 25 53 5 4 9 14
9 24 0 31 43 58 128 80 46 13 104 31 128 41 24 11 47 19 49 19 10 0 120 54
190 95 120 69 218 143 333 254 36 34 70 62 74 62 4 0 8 3 8 8 0 4 14 23 31 42
17 19 40 46 52 60 122 140 255 374 293 515 17 59 20 87 18 129 -8 120 -94 169
-244 140z m-100 -449 c0 -33 -164 -208 -310 -330 -153 -127 -326 -236 -397
-250 -21 -4 -33 9 -15 17 4 2 19 21 34 43 44 66 69 95 173 200 88 88 245 221
278 235 7 3 31 17 53 32 44 28 106 57 138 63 10 3 21 7 24 9 8 8 22 -4 22 -19z
m2215 -417 c-17 -57 -88 -285 -95 -303 -4 -11 -27 -76 -50 -145 -38 -114 -104
-260 -133 -297 -86 -109 -178 -155 -263 -131 -31 8 -84 50 -84 65 0 3 24 36
53 72 30 36 62 80 73 96 10 17 21 32 24 35 3 3 16 25 29 50 14 25 27 47 31 50
3 3 21 25 40 50 19 25 38 47 42 48 5 2 8 8 8 13 0 6 9 20 21 32 11 12 30 35
42 50 12 16 51 66 87 111 36 46 79 101 95 122 17 21 37 46 46 54 8 9 18 24 22
33 10 25 19 20 12 -5z m-2161 -1820 c-10 -16 -103 -146 -124 -172 -46 -58
-171 -176 -203 -191 -42 -20 -89 -26 -107 -15 -20 12 -4 53 33 91 64 65 104
99 115 99 6 0 12 4 14 8 5 12 116 92 128 92 5 0 10 4 10 9 0 5 9 13 20 16 11
3 26 12 32 19 11 10 77 53 86 55 2 1 0 -5 -4 -11z"/>
</g>
</svg>
